<svg width="34" height="34" viewBox="0 0 34 34" fill="none" xmlns="http://www.w3.org/2000/svg">
<path d="M11.5625 16.9889L15.1775 20.6189L22.4225 13.3589" stroke="white" stroke-width="3" stroke-linecap="round" stroke-linejoin="round"/>
<path d="M15.1175 2.66375C16.1525 1.77875 17.8475 1.77875 18.8975 2.66375L21.2675 4.70376C21.7175 5.09376 22.5575 5.40876 23.1575 5.40876H25.7075C27.2975 5.40876 28.6025 6.71376 28.6025 8.30376V10.8538C28.6025 11.4388 28.9175 12.2938 29.3075 12.7438L31.3475 15.1138C32.2325 16.1488 32.2325 17.8438 31.3475 18.8938L29.3075 21.2638C28.9175 21.7138 28.6025 22.5538 28.6025 23.1538V25.7038C28.6025 27.2938 27.2975 28.5988 25.7075 28.5988H23.1575C22.5725 28.5988 21.7175 28.9138 21.2675 29.3038L18.8975 31.3438C17.8625 32.2288 16.1675 32.2288 15.1175 31.3438L12.7475 29.3038C12.2975 28.9138 11.4575 28.5988 10.8575 28.5988H8.2625C6.6725 28.5988 5.3675 27.2938 5.3675 25.7038V23.1388C5.3675 22.5538 5.0525 21.7138 4.6775 21.2638L2.6525 18.8788C1.7825 17.8438 1.7825 16.1638 2.6525 15.1288L4.6775 12.7438C5.0525 12.2938 5.3675 11.4538 5.3675 10.8688V8.28876C5.3675 6.69876 6.6725 5.39376 8.2625 5.39376H10.8575C11.4425 5.39376 12.2975 5.07876 12.7475 4.68876L15.1175 2.66375Z" stroke="white" stroke-width="3" stroke-linecap="round" stroke-linejoin="round"/>
</svg>
