<svg width="34" height="34" viewBox="0 0 34 34" fill="none" xmlns="http://www.w3.org/2000/svg">
<path d="M15.1249 2.67498C16.1599 1.78998 17.8549 1.78998 18.9049 2.67498L21.2749 4.71499C21.7249 5.10499 22.5649 5.41999 23.1649 5.41999H25.7149C27.3049 5.41999 28.6099 6.72499 28.6099 8.31499V10.865C28.6099 11.45 28.9249 12.305 29.3149 12.755L31.3549 15.125C32.2399 16.16 32.2399 17.855 31.3549 18.905L29.3149 21.275C28.9249 21.725 28.6099 22.565 28.6099 23.165V25.715C28.6099 27.305 27.3049 28.61 25.7149 28.61H23.1649C22.5799 28.61 21.7249 28.925 21.2749 29.315L18.9049 31.355C17.8699 32.24 16.1749 32.24 15.1249 31.355L12.7549 29.315C12.3049 28.925 11.4649 28.61 10.8649 28.61H8.26994C6.67994 28.61 5.37494 27.305 5.37494 25.715V23.15C5.37494 22.565 5.05994 21.725 4.68494 21.275L2.65995 18.89C1.78995 17.855 1.78995 16.175 2.65995 15.14L4.68494 12.755C5.05994 12.305 5.37494 11.465 5.37494 10.88V8.29999C5.37494 6.70999 6.67994 5.40499 8.26994 5.40499H10.8649C11.4499 5.40499 12.3049 5.08999 12.7549 4.69999L15.1249 2.67498Z" stroke="white" stroke-width="3" stroke-linecap="round" stroke-linejoin="round"/>
</svg>
