<svg width="38" height="38" viewBox="0 0 38 38" fill="none" xmlns="http://www.w3.org/2000/svg">
<path d="M4.93122 29.9866L5.03554 29.3748L4.67707 28.8681C2.67573 26.0395 1.5 22.5873 1.5 18.856C1.5 9.27056 9.27056 1.5 18.856 1.5C28.4415 1.5 36.212 9.27056 36.212 18.856C36.212 28.4415 28.4415 36.212 18.856 36.212C15.3514 36.212 12.0936 35.1749 9.36724 33.3911L8.76998 33.0004L8.09002 33.2173C7.67665 33.3492 7.12248 33.5214 6.49298 33.717C5.61185 33.9907 4.58314 34.3103 3.5864 34.6295C3.69996 34.2695 3.81574 33.9016 3.92998 33.5356C4.36589 32.139 4.8171 30.656 4.93122 29.9866Z" stroke="#292D32" stroke-width="3"/>
<path d="M28.2838 24.824C28.2838 25.1635 28.2082 25.5123 28.0477 25.8517C27.8872 26.1911 27.6795 26.5117 27.4056 26.8134C26.943 27.3225 26.4331 27.6902 25.8571 27.9259C25.2906 28.1616 24.6768 28.2841 24.0159 28.2841C23.0528 28.2841 22.0236 28.0579 20.9377 27.5959C19.8519 27.1339 18.766 26.5117 17.6896 25.7291C16.6038 24.9372 15.5746 24.0604 14.5926 23.0893C13.6201 22.1088 12.7419 21.0811 11.9582 20.0063C11.184 18.9315 10.5608 17.8567 10.1076 16.7914C9.65435 15.7166 9.42773 14.6889 9.42773 13.7084C9.42773 13.0673 9.54104 12.4545 9.76765 11.8888C9.99426 11.3137 10.3531 10.7857 10.8535 10.3143C11.4578 9.72037 12.1188 9.4281 12.8175 9.4281C13.0819 9.4281 13.3462 9.48467 13.5823 9.5978C13.8278 9.71094 14.045 9.88065 14.2149 10.1258L16.4055 13.2087C16.5755 13.4444 16.6982 13.6613 16.7832 13.8687C16.8682 14.0667 16.9154 14.2647 16.9154 14.4438C16.9154 14.6701 16.8493 14.8963 16.7171 15.1132C16.5943 15.33 16.4149 15.5563 16.1883 15.7826L15.4707 16.5274C15.3669 16.6311 15.3197 16.7537 15.3197 16.9045C15.3197 16.9799 15.3291 17.0459 15.348 17.1214C15.3763 17.1968 15.4046 17.2534 15.4235 17.3099C15.5935 17.621 15.8862 18.0264 16.3016 18.5167C16.7265 19.007 17.1798 19.5066 17.6708 20.0063C18.1806 20.506 18.6716 20.968 19.1721 21.3922C19.6631 21.8071 20.0691 22.0899 20.3901 22.2596C20.4373 22.2785 20.494 22.3068 20.5601 22.335C20.6356 22.3633 20.7111 22.3728 20.7961 22.3728C20.9566 22.3728 21.0794 22.3162 21.1832 22.2125L21.9008 21.5054C22.1369 21.2697 22.3635 21.0906 22.5807 20.9774C22.7979 20.8454 23.015 20.7794 23.2511 20.7794C23.4305 20.7794 23.6193 20.8171 23.8271 20.902C24.0348 20.9868 24.252 21.1094 24.488 21.2697L27.6134 23.4853C27.8589 23.655 28.0288 23.853 28.1327 24.0887C28.2271 24.3244 28.2838 24.5601 28.2838 24.824Z" fill="#292D32"/>
</svg>
