<svg width="49" height="50" viewBox="0 0 49 50" fill="none" xmlns="http://www.w3.org/2000/svg">
<circle cx="24.5" cy="25.5" r="24.5" fill="#F9F9F9"/>
<path d="M30.1157 19.6956V17.558C30.1157 16.8918 29.9845 16.2322 29.7296 15.6168C29.4747 15.0014 29.101 14.4422 28.63 13.9712C28.159 13.5002 27.5998 13.1266 26.9844 12.8716C26.369 12.6167 25.7094 12.4855 25.0433 12.4855C24.3772 12.4855 23.7176 12.6167 23.1021 12.8716C22.4867 13.1266 21.9276 13.5002 21.4565 13.9712C20.9855 14.4422 20.6119 15.0014 20.357 15.6168C20.1021 16.2322 19.9709 16.8918 19.9709 17.558V22.6304C19.9709 22.8226 20.0472 23.0069 20.1831 23.1428C20.319 23.2787 20.5033 23.355 20.6955 23.355C20.8877 23.355 21.072 23.2787 21.2079 23.1428C21.3438 23.0069 21.4201 22.8226 21.4201 22.6304V21.1449H27.2172V19.6956H21.4201V17.558C21.4201 16.597 21.8018 15.6755 22.4813 14.996C23.1608 14.3165 24.0824 13.9348 25.0433 13.9348C26.0042 13.9348 26.9258 14.3165 27.6052 14.996C28.2847 15.6755 28.6664 16.597 28.6664 17.558V22.5941C28.6664 22.7863 28.7428 22.9706 28.8787 23.1065C29.0146 23.2424 29.1989 23.3188 29.3911 23.3188C29.5833 23.3188 29.7676 23.2424 29.9035 23.1065C30.0394 22.9706 30.1157 22.7863 30.1157 22.5941V21.1449H33.7389V34.1883H16.3477V21.1449H18.5216V19.6956H14.8984V34.2535C14.8984 34.6205 15.0443 34.9726 15.3038 35.2321C15.5634 35.4917 15.9154 35.6375 16.2825 35.6375H33.8041C34.1712 35.6375 34.5232 35.4917 34.7827 35.2321C35.0423 34.9726 35.1881 34.6205 35.1881 34.2535V19.6956H30.1157Z" fill="#292D32"/>
<circle cx="41" cy="8" r="8" fill="#48A4EB"/>
<path d="M40.3691 7.00195H41.2715C41.5605 7.00195 41.7988 6.95312 41.9863 6.85547C42.1738 6.75391 42.3125 6.61328 42.4023 6.43359C42.4961 6.25 42.543 6.03711 42.543 5.79492C42.543 5.57617 42.5 5.38281 42.4141 5.21484C42.332 5.04297 42.2051 4.91016 42.0332 4.81641C41.8613 4.71875 41.6445 4.66992 41.3828 4.66992C41.1758 4.66992 40.9844 4.71094 40.8086 4.79297C40.6328 4.875 40.4922 4.99023 40.3867 5.13867C40.2812 5.28711 40.2285 5.4668 40.2285 5.67773H38.5352C38.5352 5.20898 38.6602 4.80078 38.9102 4.45312C39.1641 4.10547 39.5039 3.83398 39.9297 3.63867C40.3555 3.44336 40.8242 3.3457 41.3359 3.3457C41.9141 3.3457 42.4199 3.43945 42.8535 3.62695C43.2871 3.81055 43.625 4.08203 43.8672 4.44141C44.1094 4.80078 44.2305 5.24609 44.2305 5.77734C44.2305 6.04688 44.168 6.30859 44.043 6.5625C43.918 6.8125 43.7383 7.03906 43.5039 7.24219C43.2734 7.44141 42.9922 7.60156 42.6602 7.72266C42.3281 7.83984 41.9551 7.89844 41.541 7.89844H40.3691V7.00195ZM40.3691 8.28516V7.41211H41.541C42.0059 7.41211 42.4141 7.46484 42.7656 7.57031C43.1172 7.67578 43.4121 7.82812 43.6504 8.02734C43.8887 8.22266 44.0684 8.45508 44.1895 8.72461C44.3105 8.99023 44.3711 9.28516 44.3711 9.60938C44.3711 10.0078 44.2949 10.3633 44.1426 10.6758C43.9902 10.9844 43.7754 11.2461 43.498 11.4609C43.2246 11.6758 42.9043 11.8398 42.5371 11.9531C42.1699 12.0625 41.7695 12.1172 41.3359 12.1172C40.9766 12.1172 40.623 12.0684 40.2754 11.9707C39.9316 11.8691 39.6191 11.7188 39.3379 11.5195C39.0605 11.3164 38.8379 11.0625 38.6699 10.7578C38.5059 10.4492 38.4238 10.084 38.4238 9.66211H40.1172C40.1172 9.88086 40.1719 10.0762 40.2812 10.248C40.3906 10.4199 40.541 10.5547 40.7324 10.6523C40.9277 10.75 41.1445 10.7988 41.3828 10.7988C41.6523 10.7988 41.8828 10.75 42.0742 10.6523C42.2695 10.5508 42.418 10.4102 42.5195 10.2305C42.625 10.0469 42.6777 9.83398 42.6777 9.5918C42.6777 9.2793 42.6211 9.0293 42.5078 8.8418C42.3945 8.65039 42.2324 8.50977 42.0215 8.41992C41.8105 8.33008 41.5605 8.28516 41.2715 8.28516H40.3691Z" fill="white"/>
</svg>
